# xmcd
#
# Track frame offsets:
#	150
#	16072
#	35442
#	57675
#	74827
#	97697
#	111950
#	126565
#	152212
#	173637
#	188320
#	205232
#	222880
#	243705
#	266895
#	282577
#
# Disc length: 3883 seconds
#
# Revision: 0
# Processed by: cddbd v1.4PL0 Copyright (c) Steve Scherf et al.
# Submitted via: EasyCDDAExtractor 5.0.4.1
#
DISCID=f40f2910
DTITLE=Joel Rubin and the Epstein Brothers Orchestra - Jewish-American Wedding
DTITLE=Music
DYEAR=1993
DGENRE=National Folk
TTITLE0=No Name Sirba
TTITLE1=Mayn Eynikl
TTITLE2=Baym Zeydns Tish
TTITLE3=South Fallsburg
TTITLE4=Kale Bazetsn
TTITLE5=Bukoniver Freylekhs
TTITLE6=Freylekher Sher
TTITLE7=Doina
TTITLE8=Baym Shotser Rebn
TTITLE9=Freylekher Nushiele
TTITLE10=Hora and Sirba
TTITLE11=Seymour's Bar Mitzvah
TTITLE12=A Khasene in Shtetl
TTITLE13=Lebedik un Freylekh
TTITLE14=Brownie's Khasene
TTITLE15=Rumenisher Freylekhs
EXTD=
EXTT0=
EXTT1=
EXTT2=
EXTT3=
EXTT4=
EXTT5=
EXTT6=
EXTT7=
EXTT8=
EXTT9=
EXTT10=
EXTT11=
EXTT12=
EXTT13=
EXTT14=
EXTT15=
PLAYORDER=
